<?xml version="1.0" encoding="utf-8"?>
<!-- Generator: Adobe Illustrator 23.1.0, SVG Export Plug-In . SVG Version: 6.00 Build 0)  -->
<svg version="1.1" xmlns="http://www.w3.org/2000/svg" xmlns:xlink="http://www.w3.org/1999/xlink" x="0px" y="0px"
	 viewBox="0 0 116.75 112.38" style="enable-background:new 0 0 116.75 112.38;" xml:space="preserve">
<style type="text/css">
	.st0{fill:#4153A0;}
	.st1{fill:none;stroke:#FFFFFF;stroke-width:7;stroke-miterlimit:10;}
	.st2{fill:#FFFFFF;}
	.st3{fill:none;stroke:#FFFFFF;stroke-width:3;stroke-miterlimit:10;}
</style>
<g id="Ebene_1">
	<rect x="24.96" y="282.45" class="st0" width="69.28" height="69.28"/>
	<rect x="241.64" y="151.36" class="st0" width="74.04" height="74.04"/>
	<path class="st0" d="M87.88,94.36H29.8c-5.21,0-9.42-4.22-9.42-9.42V26.97c0-5.21,4.22-9.42,9.42-9.42h58.08
		c5.21,0,9.42,4.22,9.42,9.42v57.96C97.3,90.14,93.08,94.36,87.88,94.36z"/>
	<path class="st1" d="M95.32,23.86"/>
	<path class="st0" d="M310.99,98.63h-63.52c-2.78,0-5.03-2.25-5.03-5.03V30.07c0-2.78,2.25-5.03,5.03-5.03h63.52
		c2.78,0,5.03,2.25,5.03,5.03v63.52C316.02,96.37,313.77,98.63,310.99,98.63z"/>
	<path class="st1" d="M263.41,34.73"/>
	<path class="st0" d="M86.34,225.62H33.02c-6.47,0-11.72-5.25-11.72-11.72v-53.32c0-6.47,5.25-11.72,11.72-11.72h53.32
		c6.47,0,11.72,5.25,11.72,11.72v53.32C98.06,220.38,92.82,225.62,86.34,225.62z"/>
	<g>
		<path class="st2" d="M86.34,227.12H33.02c-7.29,0-13.22-5.93-13.22-13.22v-53.32c0-7.29,5.93-13.22,13.22-13.22h53.32
			c7.29,0,13.22,5.93,13.22,13.22v53.32C99.56,221.19,93.63,227.12,86.34,227.12z M33.02,150.37c-5.63,0-10.22,4.58-10.22,10.22
			v53.32c0,5.63,4.58,10.22,10.22,10.22h53.32c5.63,0,10.22-4.58,10.22-10.22v-53.32c0-5.63-4.58-10.22-10.22-10.22H33.02z"/>
	</g>
	<g>
		<path class="st2" d="M85.66,96.03H32.34c-7.29,0-13.22-5.93-13.22-13.22V29.49c0-7.29,5.93-13.22,13.22-13.22h53.32
			c7.29,0,13.22,5.93,13.22,13.22v53.32C98.88,90.1,92.95,96.03,85.66,96.03z M32.34,19.27c-5.63,0-10.22,4.58-10.22,10.22v53.32
			c0,5.63,4.58,10.22,10.22,10.22h53.32c5.63,0,10.22-4.58,10.22-10.22V29.49c0-5.63-4.58-10.22-10.22-10.22H32.34z"/>
	</g>
	<path class="st2" d="M46.91,178.96c-0.15,0.4-0.21,0.81-0.15,1.23c0.43,3.09,6.34,4.74,11.72,4.74c0.03,0,0.06,0,0.1,0
		c4.55-0.02,8.47-1.15,9.99-2.9c0.57-0.65,0.81-1.4,0.71-2.15c-0.04-0.29-0.13-0.56-0.26-0.83l9.67-6.56
		c0.53,0.53,1.89,2.17,2.6,5.71c0.32,1.58,0.06,1.68-0.32,1.82c-1.47,0.55-2.04,1.53-1.06,5.26c-1.12,2.77-0.65,4.71-0.63,4.8
		l0.25,0.99l5.43-0.65l-0.11-0.82c-0.4-2.85-2.08-4.17-3.03-4.7c-0.7-2.77-0.23-2.95,0.15-3.09c1.21-0.45,1.81-1.2,1.31-3.66
		c-0.75-3.76-2.2-5.76-3.07-6.67l1.24-0.84l-26.58-10.98l-22.84,10.98L46.91,178.96z M81.56,186.91c0.39,0.36,0.84,0.94,1.1,1.84
		l-1.47,0.18C81.22,188.41,81.31,187.72,81.56,186.91z M69.3,172.41l-0.52-0.28c-12.92-6.88-23.3-0.28-23.73,0l-0.43,0.28l0.59,3.53
		l-9.02-5.05l19.04-9.15l22.14,9.15l-7.47,5.07L69.3,172.41z M48.74,179.15c0.96-1.1,4.1-2.3,8.72-2.32c0.03,0,0.07,0,0.1,0
		c5.95,0,9.86,1.91,10.05,3.29c0.01,0.1,0.05,0.39-0.31,0.81c-0.96,1.1-4.1,2.3-8.72,2.32c-0.03,0-0.07,0-0.1,0
		c-5.95,0-9.86-1.91-10.05-3.29C48.41,179.87,48.37,179.57,48.74,179.15z M47.54,177.98l-0.74-4.48c1.99-1.09,10.56-5.12,20.69-0.02
		l0.76,4.55c-2-1.89-6.5-2.89-10.68-2.89c-0.03,0-0.06,0-0.1,0C52.97,175.17,49.09,176.27,47.54,177.98z"/>
	<path class="st2" d="M274.14,49.95c-0.13,0.37-0.18,0.75-0.13,1.14c0.36,2.86,5.34,4.39,9.87,4.39c0.03,0,0.05,0,0.08,0
		c3.83-0.02,7.13-1.07,8.41-2.68c0.48-0.61,0.68-1.29,0.6-1.99c-0.03-0.27-0.11-0.52-0.22-0.77l8.14-6.07
		c0.45,0.49,1.59,2.01,2.19,5.28c0.27,1.46,0.05,1.55-0.27,1.69c-1.23,0.51-1.72,1.42-0.9,4.87c-0.94,2.56-0.55,4.36-0.53,4.44
		l0.21,0.92l4.57-0.6l-0.1-0.76c-0.34-2.64-1.75-3.86-2.55-4.35c-0.59-2.56-0.19-2.73,0.13-2.86c1.01-0.42,1.52-1.11,1.1-3.39
		c-0.63-3.48-1.85-5.33-2.58-6.18l1.04-0.78l-22.38-10.17l-19.22,10.16L274.14,49.95z M303.31,57.31c0.33,0.33,0.7,0.87,0.93,1.7
		L303,59.18C303.02,58.7,303.1,58.06,303.31,57.31z M292.99,43.89l-0.44-0.26c-10.87-6.37-19.61-0.26-19.98,0l-0.36,0.26l0.5,3.27
		l-7.59-4.68l16.02-8.47l18.64,8.47l-6.29,4.69L292.99,43.89z M275.68,50.13c0.81-1.02,3.45-2.13,7.34-2.15c0.03,0,0.06,0,0.09,0
		c5.01,0,8.3,1.77,8.46,3.04c0.01,0.09,0.05,0.36-0.26,0.75c-0.81,1.02-3.45,2.13-7.34,2.15c-0.03,0-0.06,0-0.09,0
		c-5.01,0-8.3-1.77-8.46-3.04C275.41,50.79,275.37,50.52,275.68,50.13z M274.67,49.04l-0.63-4.14c1.67-1.01,8.89-4.74,17.41-0.02
		l0.64,4.21c-1.68-1.75-5.47-2.67-8.99-2.67c-0.03,0-0.05,0-0.08,0C279.24,46.44,275.98,47.47,274.67,49.04z"/>
	<path class="st2" d="M64.57,208.44l22.7-0.69l-0.4-5.2c-4.59-0.46-12.04,0.35-17.77,1.16c4.49-1.33,10.66-2.79,16.51-2.92
		l-0.04-1.68c-10.04,0.23-20.68,4.12-23.13,5.06c-0.87-3.43-4.6-11.6-20.69-16.5l-0.49,1.61c11.1,3.38,15.97,8.39,18.1,12.01
		c-3.87-4.02-9.09-7.07-14.72-8.47c-3.74-0.93-7.71-1.13-11.81-0.62l0.21,1.67c3.89-0.49,7.66-0.3,11.19,0.58
		c5.59,1.38,10.76,4.49,14.45,8.57c-8.44-4.26-17.29-5.12-25.3-2.4l0.54,1.59c8.67-2.95,18.43-1.43,27.48,4.28l2.93,1.85l0.11,0.1
		l0.06,0l0.09,0.06L64.57,208.44z"/>
	<path class="st2" d="M59.56,336.07l22.18,4.88l0.89-5.14c-4.34-1.57-11.76-2.6-17.52-3.22c4.68-0.19,11.02-0.1,16.72,1.21
		l0.37-1.64c-9.79-2.23-21.06-1.07-23.66-0.75c0-3.54-1.63-12.38-16.02-21.06l-0.87,1.44c9.94,6,13.43,12.04,14.61,16.07
		c-2.77-4.85-7.08-9.08-12.2-11.81c-3.4-1.81-7.2-2.98-11.3-3.49l-0.2,1.67c3.89,0.48,7.5,1.59,10.71,3.3
		c5.08,2.71,9.34,6.98,11.92,11.85c-7.14-6.19-15.51-9.19-23.95-8.51l0.14,1.68c9.13-0.74,18.22,3.12,25.6,10.87l2.39,2.51
		l0.08,0.13l0.05,0.01l0.07,0.08L59.56,336.07z"/>
	<path class="st2" d="M32.52,82.71l0.79,0.1c0.79,0.1,1.64,0.14,2.53,0.14c7.6,0,18.07-3.23,20.82-4.12l2.07,4.73l25.76-0.62
		l-5.06-24.37l-0.99-0.08l-0.3-3.13l-0.62-0.07c-0.07-0.01-7.32-0.82-11.75-2.39c-3.77-1.33-6.59-2-8.13-0.91
		c-0.44,0.31-0.74,0.74-0.9,1.29c-1.31-0.28-3.91-0.37-7.86,1.56c-5.29,2.58-10.17,2.21-10.22,2.2l-0.71-0.06l-0.11,0.71l-0.07,0.49
		l-1.25,0.08L32.52,82.71z M34.62,79.29l-0.31,2.08c-0.01,0-0.02,0-0.03,0L34.62,79.29z M56.6,54.81
		c-0.03,3.51-0.25,16.47-0.34,21.17c-3.95-1.12-15.71,2.24-20.14,3.58l3.12-20.97c1.64,0.02,5.79-0.18,10.31-2.38
		C53.43,54.31,55.74,54.58,56.6,54.81z M78.76,77.88l-1.18-0.04c-1.4-0.25-3.17-0.78-4.35-1.19c-7.08-3.42-12.09-4.26-14.9-2.5
		c-0.18,0.12-0.35,0.24-0.51,0.37c0.1-5.89,0.31-17.98,0.31-20.23c0-0.69,0.22-0.92,0.39-1.04c1.21-0.86,5.38,0.61,6.75,1.1
		c3.88,1.37,9.59,2.16,11.48,2.39L78.76,77.88z M59.16,75.42c1.56-0.96,5.01-1.31,12.59,2.21l-13.89-0.48
		C57.99,76.65,58.33,75.93,59.16,75.42z M82.34,80.09l-2.01-1.79l-1.4-14.61L82.34,80.09z M58.26,78.69l19.21,0.67
		c0.52,0.08,1.03,0.14,1.47,0.14c0.15,0,0.29-0.01,0.42-0.02l2.25,2l-21.9,0.53L58.26,78.69z M35.31,81.41l0.11-0.03
		c7.3-2.3,18.2-4.94,20.53-3.93C52.89,78.42,42.43,81.57,35.31,81.41z"/>
	<path class="st2" d="M83.49,29.73l-24.85-5.67l-0.19-0.04l-23.89,6.2l9.3,3.85l-0.07,4.41l0,0.02l0.37,4.16
		c-0.38,2.01-1.39,8.31,0.4,9.62c0.27,0.2,0.59,0.3,0.94,0.3c0.13,0,0.27-0.02,0.41-0.05c0.4-0.09,0.95-0.33,1.33-0.97
		c1.38-2.36-0.74-8.52-1.12-9.22c-0.4-0.74-0.85-3.02-1-3.89l0.06-3.84l3.58,1.48c0.04,1.65,0.39,8.73,3.6,10.04
		c2.08,0.85,4.98,1.3,7.94,1.3c1.7,0,3.42-0.15,5.01-0.46c4.22-0.82,5.03-2.33,5.68-3.55l0.12-0.22c0.66-1.21-0.17-6.04-0.48-7.71
		L83.49,29.73z M45.31,43.82c0.64,1.94,1.59,5.8,0.73,7.27c-0.17,0.29-0.35,0.36-0.47,0.39c-0.08,0.02-0.09,0.01-0.11-0.01
		C44.66,50.88,44.76,47.24,45.31,43.82z M58.48,25.15l21.51,4.91l-20.55,9.22l-21.35-8.84L58.48,25.15z M69.91,42.76l-0.12,0.23
		c-0.62,1.15-1.2,2.23-4.77,2.92c-4.01,0.78-9.08,0.46-12.05-0.76c-1.87-0.77-2.7-5.31-2.85-8.51l9.34,3.87l9.94-4.46
		C69.87,38.66,70.28,42.08,69.91,42.76z"/>
	<path class="st2" d="M53.27,300.6c-0.62,1.12-2.32,4.36-1.97,5.39l0.06,0.19c0.35,1.03,0.78,2.32,4.43,3.96
		c1.38,0.62,2.9,1.16,4.44,1.58c2.68,0.74,5.39,1.15,7.44,1.06c3.16-0.13,4.88-5.09,5.25-6.26l3.53-0.16l-0.7,2.76
		c-0.31,0.58-1.17,2.1-1.67,2.53c-0.48,0.41-3.62,4.28-2.84,6.31c0.21,0.55,0.66,0.86,1.01,1.03c0.12,0.06,0.24,0.1,0.36,0.14
		c0.31,0.09,0.63,0.1,0.91,0.02c1.88-0.49,2.21-5.24,2.27-6.77l1.16-2.88l0-0.02l0.81-3.17l9.17-0.41l-20.37-10.42l-0.18-0.02
		l-23.59-2.19L53.27,300.6z M72.88,318.33c-0.03,0.01-0.04,0.01-0.11-0.02c-0.1-0.05-0.25-0.15-0.35-0.4c-0.49-1.26,1.14-3.78,2.1-5
		C74.34,315.49,73.71,318.12,72.88,318.33z M83.71,305.17l-21.06,0.95L45.9,294.38l20.42,1.9L83.71,305.17z M54.29,301.32l8.1,5.68
		l9.21-0.42c-0.77,2.24-2.42,5.28-4.26,5.36c-2.93,0.12-7.57-0.92-11.05-2.48c-3.09-1.39-3.4-2.31-3.73-3.29l-0.07-0.19
		C52.29,305.4,53.34,303.06,54.29,301.32z"/>
	<g>
		<path class="st2" d="M96.25,353.74H22.96v-73.28h73.28V353.74z M26.96,349.74h65.28v-65.28H26.96V349.74z"/>
	</g>
	<g>
		<path class="st2" d="M317.68,227.4h-78.04v-78.04h78.04V227.4z M243.64,223.4h70.04v-70.04h-70.04V223.4z"/>
	</g>
	<rect x="241.64" y="278.6" class="st0" width="74.04" height="74.04"/>
	<g>
		<path class="st2" d="M317.68,354.64h-78.04V276.6h78.04V354.64z M243.64,350.64h70.04V280.6h-70.04V350.64z"/>
	</g>
	<path class="st2" d="M307.37,167.13l-44-6.26l-11.88,41.71l-2.23,6.47l44.01,7.66l1.9-5.94l0.03,0.01l0.25-0.9l0.31-0.99
		l-0.04-0.01L307.37,167.13z M292.41,211.7l-39.36-6.43l0.46-1.32l4.88,0.8l34.45,5.63L292.41,211.7z M252.25,207.58l0.46-1.34
		l39.38,6.43l-0.56,1.75L252.25,207.58z M293.4,208.49l-34.31-5.61l-4.99-0.82l11.1-38.97l39.3,5.59L293.4,208.49z"/>
	<path class="st2" d="M305.93,286.93l-48.98,1.66l-4.87,47.58l-1.18,7.45l49.26-0.15l0.92-6.81l0.04,0l0.1-1.03l0.15-1.13l-0.04,0
		L305.93,286.93z M298.25,338.2l-43.97,0.59l0.24-1.53l5.45-0.07l38.48-0.51L298.25,338.2z M253.86,341.45l0.24-1.55l44-0.59
		l-0.27,2.01L253.86,341.45z M298.71,334.53l-38.34,0.51l-5.57,0.07l4.55-44.45l43.75-1.48L298.71,334.53z"/>
	<path class="st2" d="M281.57,172.23l-14.71,7.88l0.69,0.6c-0.48,0.66-1.28,2.09-1.7,4.79c-0.27,1.77,0.06,2.31,0.73,2.63
		c0.21,0.1,0.47,0.23,0.08,2.22c-0.52,0.38-1.45,1.33-1.68,3.38l-0.06,0.59l3.01,0.47l0.14-0.71c0.01-0.06,0.27-1.46-0.35-3.44
		c0.54-2.68,0.22-3.38-0.59-3.78c-0.21-0.1-0.35-0.17-0.18-1.31c0.39-2.54,1.15-3.72,1.44-4.1l5.35,4.71
		c-0.07,0.19-0.12,0.39-0.14,0.59c-0.06,0.54,0.08,1.07,0.39,1.54c0.84,1.25,3.01,2.07,5.53,2.08c0.02,0,0.04,0,0.05,0
		c2.98,0,6.25-1.19,6.49-3.4c0.03-0.3,0-0.6-0.08-0.88l8.24-5.98L281.57,172.23z M267,193.24l-0.82-0.13
		c0.15-0.65,0.39-1.06,0.61-1.32C266.94,192.38,266.99,192.87,267,193.24z M285.13,186.81c-0.11,0.99-2.27,2.36-5.56,2.36
		c-0.02,0-0.04,0-0.06,0c-2.56-0.01-4.3-0.87-4.83-1.66c-0.2-0.3-0.18-0.52-0.17-0.58c0.11-0.99,2.27-2.36,5.56-2.36
		c0.02,0,0.04,0,0.06,0c2.56,0.01,4.3,0.87,4.83,1.66C285.16,186.53,285.14,186.74,285.13,186.81z M285.63,185.38
		c-0.86-1.22-3-2.02-5.49-2.03c-0.02,0-0.04,0-0.05,0c-2.31,0-4.8,0.72-5.91,2.07l0.42-3.27c5.6-3.66,10.35-0.77,11.45,0.01
		L285.63,185.38z M287.01,181.19c-0.24-0.2-5.99-4.94-13.14,0l-0.29,0.2l-0.33,2.55l-4.14-3.64l12.25-6.57l10.54,6.57l-4.99,3.63
		l0.33-2.54L287.01,181.19z"/>
	<path class="st3" d="M313.45,98.63H245c-1.42,0-2.57-1.15-2.57-2.57V27.61c0-1.42,1.15-2.57,2.57-2.57h68.45
		c1.42,0,2.57,1.15,2.57,2.57v68.45C316.02,97.47,314.87,98.63,313.45,98.63z"/>
	<path class="st2" d="M293.27,60.37l-0.52-0.09c-8.27-1.48-14-0.87-17.03,1.83c-0.63,0.56-1.05,1.15-1.36,1.71
		c-0.6-0.59-1.34-1.06-2.21-1.39c-6.27-2.41-17.49,3.14-17.97,3.38l-0.88,0.44l8.11,22.93l1.18-0.73
		c10.38-6.4,14.99-6.12,16.83-5.38c0.9,0.36,1.38,0.92,1.61,1.32l0.27,0.64l1.22-0.39l0.9,0.19c0.5-2.42,1.67-4.09,3.56-5.11
		c5.5-2.97,15.05,0.71,15.14,0.75l2.88,1.13L293.27,60.37z M262.6,85.84l-6.53-18.47c3.57-1.63,11.22-4.43,15.28-2.87
		c1.16,0.44,1.93,1.2,2.38,2.35l5.79,13.9C275.74,79.71,270.06,81.41,262.6,85.84z M285.92,77.75c-1.61,0.87-2.84,2.13-3.68,3.75
		l-6.37-15.29c0.03-0.37,0.2-1.44,1.33-2.44c1.68-1.5,5.59-2.94,14.64-1.39l8.35,15.12C296.62,76.51,290.36,75.35,285.92,77.75z"/>
	<path class="st2" d="M270.41,309.87c-0.29,1.22-1.06,4.78-0.58,5.8l0.09,0.18c0.48,1.03,1.08,2.31,4.36,3.58
		c1.24,0.48,2.58,0.86,3.91,1.13c2.32,0.46,4.6,0.57,6.25,0.24c2.54-0.5,3.01-5.83,3.08-7.08l2.84-0.57l-0.05,2.93
		c-0.14,0.64-0.55,2.3-0.88,2.81c-0.31,0.48-2.13,4.84-1.11,6.85c0.28,0.55,0.7,0.82,1.01,0.94c0.11,0.05,0.22,0.08,0.32,0.1
		c0.27,0.05,0.53,0.03,0.74-0.08c1.43-0.72,0.8-5.68,0.56-7.26l0.4-3.11l0-0.02l0.06-3.37l7.38-1.48l-18.54-8.43l-0.15,0l-19.6,0.45
		L270.41,309.87z M289.72,325.94c-0.02,0.01-0.03,0.02-0.09-0.01c-0.09-0.04-0.23-0.12-0.36-0.37c-0.63-1.25,0.21-4.04,0.76-5.42
		C290.37,322.84,290.35,325.63,289.72,325.94z M296.03,311.09l-16.95,3.41l-15.85-10.22l16.96-0.39L296.03,311.09z M271.37,310.49
		l7.67,4.94l7.41-1.49c-0.2,2.41-0.97,5.74-2.45,6.03c-2.36,0.46-6.33-0.08-9.46-1.3c-2.78-1.08-3.21-2-3.66-2.97l-0.09-0.19
		C270.52,314.94,270.94,312.4,271.37,310.49z"/>
</g>
</svg>
